<?xml version="1.0" encoding="UTF-8" standalone="no"?>
<svg
   viewBox="0 0 1000 236.269"
   stroke="currentColor"
   version="1.1"
   id="svg4"
   sodipodi:docname="bitwarden logo.svg"
   width="1000"
   height="236.269"
   inkscape:version="1.2.2 (732a01da63, 2022-12-09)"
   xmlns:inkscape="http://www.inkscape.org/namespaces/inkscape"
   xmlns:sodipodi="http://sodipodi.sourceforge.net/DTD/sodipodi-0.dtd"
   xmlns="http://www.w3.org/2000/svg"
   xmlns:svg="http://www.w3.org/2000/svg"
   xmlns:rdf="http://www.w3.org/1999/02/22-rdf-syntax-ns#"
   xmlns:cc="http://creativecommons.org/ns#"
   xmlns:dc="http://purl.org/dc/elements/1.1/">
  <title
     id="title293">Bitwarden</title>
  <defs
     id="defs8" />
  <sodipodi:namedview
     id="namedview6"
     pagecolor="#ffffff"
     bordercolor="#666666"
     borderopacity="1.0"
     inkscape:showpageshadow="2"
     inkscape:pageopacity="0.0"
     inkscape:pagecheckerboard="0"
     inkscape:deskcolor="#d1d1d1"
     showgrid="false"
     inkscape:zoom="0.56444242"
     inkscape:cx="512.00971"
     inkscape:cy="-44.291498"
     inkscape:window-width="1366"
     inkscape:window-height="705"
     inkscape:window-x="-8"
     inkscape:window-y="-8"
     inkscape:window-maximized="1"
     inkscape:current-layer="svg4" />
  <path
     id="rect353"
     style="fill:#0060df;fill-opacity:1;fill-rule:evenodd;stroke:none;stroke-width:4.15697;paint-order:fill markers stroke;stop-color:#000000"
     d="M 0,0 H 1000 V 236.269 H 0 Z" />
  <path
     fill-rule="evenodd"
     clip-rule="evenodd"
     d="m 262.55912,83.943667 c 10.38084,0 18.45481,3.9546 24.38672,12.19336 5.9319,8.073983 8.89784,19.113913 8.89784,33.119793 0,14.50021 -2.96594,25.70491 -9.06262,33.61412 -6.09668,8.07397 -14.33542,11.86381 -24.71625,11.86381 -10.38084,0 -18.29005,-3.62507 -24.22195,-11.20472 h -1.64775 l -3.13073,7.74443 c -0.49432,1.15344 -1.64774,1.81254 -2.80118,1.81254 h -13.182 c -1.64775,0 -2.96595,-1.3182 -2.96595,-2.96595 V 54.284157 c 0,-1.64775 1.3182,-2.96596 2.96595,-2.96596 h 17.7957 c 1.64775,0 2.96596,1.31821 2.96596,2.96596 v 25.37536 c 0,3.62505 -0.32955,9.39218 -0.98864,17.30138 h 0.98864 c 5.43758,-8.5683 13.84111,-13.01723 24.71626,-13.01723 z m -7.57965,19.278693 c -5.76713,0 -10.21605,1.81252 -13.01723,5.43757 -2.6364,3.62506 -4.11938,9.72173 -4.11938,17.96048 v 2.63641 c 0,9.39218 1.3182,16.14796 4.11938,20.10257 2.80118,3.95459 7.2501,6.09667 13.34678,6.09667 4.77847,0 8.89785,-2.30686 11.69904,-6.92056 2.80117,-4.44892 4.28414,-11.20471 4.28414,-19.60823 0,-8.5683 -1.48297,-14.99453 -4.28414,-19.27869 -2.96596,-4.28415 -7.08535,-6.42622 -12.02859,-6.42622 z m 80.08069,70.02941 h -17.79571 c -1.64775,0 -2.96594,-1.3182 -2.96594,-2.96595 V 88.722147 c 0,-1.64775 1.31819,-2.96595 2.96594,-2.96595 h 17.79571 c 1.64775,0 2.96596,1.3182 2.96596,2.96595 v 81.398903 c 0.16477,1.48297 -1.31821,3.13072 -2.96596,3.13072 z m 65.08616,-17.63093 c 3.46028,0 7.57965,-0.65911 12.52291,-1.97731 1.31819,-0.32955 2.47163,0.6591 2.47163,1.97731 v 13.67632 c 0,0.82389 -0.49433,1.48297 -1.15344,1.81252 -5.60235,2.30686 -12.68768,3.46029 -20.59688,3.46029 -9.55695,0 -16.47751,-2.30685 -20.76166,-7.2501 -4.28416,-4.77849 -6.59101,-12.02858 -6.59101,-21.58554 v -42.01765 h -9.39217 c -1.15342,0 -1.97731,-0.82388 -1.97731,-1.9773 v -7.744433 c 0,-0.16477 0.16477,-0.32955 0.16477,-0.49432 l 13.01725,-7.74443 6.42622,-17.13661 c 0.32955,-0.82388 0.98865,-1.3182 1.81253,-1.3182 h 11.8638 c 1.15342,0 1.97731,0.82387 1.97731,1.9773 v 16.64228 h 23.56283 c 0.49432,0 0.98866,0.49433 0.98866,0.98865 v 14.829763 c 0,1.15342 -0.82389,1.9773 -1.97731,1.9773 h -22.40941 v 41.85288 c 0,3.29549 0.98866,5.93189 2.80118,7.41487 1.64775,1.81253 4.28415,2.63641 7.2501,2.63641 z m 110.89363,17.63093 c -2.30685,0 -4.11937,-1.48297 -5.10803,-3.62506 l -17.46616,-53.22235 c -1.15342,-3.78982 -2.6364,-9.55695 -4.6137,-16.971833 h -0.49432 l -1.64775,5.931903 -3.46029,11.20471 -17.96048,53.22235 c -0.65909,2.14208 -2.6364,3.46028 -4.94325,3.46028 -2.30685,0 -4.28414,-1.48297 -4.94324,-3.78983 L 428.48764,92.841517 c -0.65911,-2.30685 1.15342,-4.77847 3.78983,-4.77847 h 0.49432 c 1.64775,0 3.13072,1.15342 3.62505,2.80117 l 12.85245,46.631363 c 3.13073,12.19335 5.27281,21.09121 6.26145,27.02311 h 0.49434 c 2.96594,-12.19336 5.27279,-20.26734 6.75578,-24.38671 l 16.64227,-48.773433 c 0.65911,-1.9773 2.47164,-3.2955 4.77848,-3.2955 2.14208,0 3.9546,1.3182 4.6137,3.2955 l 15.48887,48.443883 c 3.78981,12.35812 6.09667,20.26733 6.92055,24.38671 h 0.49432 c 0.49433,-3.2955 2.47163,-12.52291 6.26146,-27.35267 l 12.35812,-45.972253 c 0.49433,-1.64775 1.97731,-2.80117 3.62506,-2.80117 2.47163,0 4.28415,2.30685 3.62505,4.77847 l -20.76166,76.620423 c -0.6591,2.30686 -2.6364,3.78983 -5.10803,3.78983 z m 97.8764,0 c -1.48297,0 -2.80117,-1.15342 -2.96595,-2.63641 l -1.48297,-10.87514 h -0.82388 c -4.28414,5.43756 -8.56831,9.39217 -13.18201,11.69901 -4.44893,2.30686 -9.8865,3.29552 -15.98318,3.29552 -8.40353,0 -14.82976,-2.14208 -19.44347,-6.42624 -4.11936,-3.78982 -6.42621,-8.89786 -6.75576,-15.32408 -0.65911,-8.5683 2.96595,-16.80706 9.88649,-21.58553 7.08534,-4.61371 16.97185,-7.41489 30.31862,-7.41489 l 16.14797,-0.49432 v -5.60235 c 0,-8.23876 -1.64777,-14.17066 -5.10804,-18.290043 -3.46027,-4.11937 -8.5683,-6.09667 -15.81841,-6.09667 -6.92054,0 -13.8411,1.64775 -21.0912,5.10802 -1.81254,0.82388 -3.9546,0 -4.77848,-1.81252 -0.82388,-1.81253 0,-3.95461 1.81252,-4.6137 8.23876,-3.29551 16.31274,-5.10803 24.55149,-5.10803 9.39219,0 16.31274,2.47162 21.09121,7.41488 4.61371,4.77847 6.92056,12.522903 6.92056,22.574183 v 53.5519 c -0.16477,0.98866 -1.64774,2.63641 -3.29551,2.63641 z m -34.10844,-5.60236 c 9.22741,0 16.31272,-2.63641 21.42076,-7.74442 5.2728,-5.10803 7.90921,-12.52291 7.90921,-21.58554 v -8.23876 l -14.82977,0.6591 c -12.02858,0.49432 -20.43211,2.47163 -25.7049,5.60236 -5.10804,3.13073 -7.74444,8.23875 -7.74444,14.82975 0,5.27281 1.64777,9.55696 4.77848,12.52291 3.62505,2.47163 8.23875,3.9546 14.17066,3.9546 z m 97.54685,-81.234113 c 2.47162,0 4.94326,0.16477 7.74443,0.49432 2.14208,0.32955 3.46028,2.30685 3.13073,4.28415 -0.32955,1.97731 -2.30686,3.13073 -4.28415,2.80118 -2.47163,-0.32955 -4.94326,-0.6591 -7.41488,-0.6591 -7.2501,0 -13.18201,3.13073 -17.79571,9.227413 -4.6137,6.09667 -6.92055,14.00588 -6.92055,23.23328 v 43.17108 c 0,2.14206 -1.64776,3.78982 -3.78984,3.78982 -2.14206,0 -3.78983,-1.64776 -3.78983,-3.78982 V 91.523327 c 0,-1.81253 1.48299,-3.29551 3.29551,-3.29551 1.81252,0 3.29551,1.3182 3.29551,3.13073 l 0.6591,12.193363 h 0.49432 c 3.46027,-6.261463 7.2501,-10.710393 11.20471,-13.182013 3.78982,-2.6364 8.56829,-3.9546 14.17065,-3.9546 z m 58.00083,0 c 6.09667,0 11.53426,1.15342 15.98319,3.2955 4.61369,2.14208 8.5683,6.09668 12.02857,11.534253 h 0.49434 c -0.32956,-6.755773 -0.49434,-13.017233 -0.49434,-19.278683 v -26.85834 c 0,-2.14207 1.64776,-3.78983 3.78983,-3.78983 2.14208,0 3.78983,1.64776 3.78983,3.78983 V 170.28582 c 0,1.48298 -1.15342,2.6364 -2.6364,2.6364 -1.3182,0 -2.47162,-0.98865 -2.6364,-2.47164 l -1.64775,-10.71036 h -0.65911 c -6.42622,9.72172 -15.8184,14.50019 -27.84699,14.50019 -11.8638,0 -20.59688,-3.62505 -27.02311,-11.03992 -6.09668,-7.41488 -9.39217,-17.96047 -9.39217,-31.96638 0,-14.66497 2.96594,-25.86968 9.22739,-33.778883 6.26145,-7.08533 15.15932,-11.03993 27.02312,-11.03993 z m 0,7.08533 c -9.39218,0 -16.31274,3.2955 -21.09121,9.886503 -4.6137,6.42623 -6.92055,15.81841 -6.92055,28.34132 0,24.05716 9.39218,36.08574 28.17653,36.08574 9.72174,0 16.64229,-2.80119 21.09122,-8.40354 4.6137,-5.60234 6.75577,-14.82975 6.75577,-27.6822 v -1.31821 c 0,-13.182 -2.14207,-22.57418 -6.75577,-28.17653 -4.28415,-5.931913 -11.36948,-8.733083 -21.25599,-8.733083 z m 98.70027,81.234123 c -12.35812,0 -21.91508,-3.78984 -29.0004,-11.53426 -6.92056,-7.57965 -10.38084,-18.29003 -10.38084,-31.96638 0,-13.67632 3.2955,-24.55148 10.05129,-32.625463 6.75578,-8.23875 15.65363,-12.35813 27.0231,-12.35813 9.88651,0 17.96048,3.46028 23.56284,10.38083 5.9319,6.920563 8.73308,16.477513 8.73308,28.506103 v 6.26145 H 797.7486 c 0.16477,11.69902 2.80118,20.59687 8.23875,26.85834 5.43758,6.26145 13.01724,9.06263 23.06851,9.06263 4.77848,0 9.22741,-0.32956 12.85247,-0.98865 2.6364,-0.49433 5.76712,-1.31822 9.55695,-2.63641 2.14207,-0.82387 4.44892,0.82388 4.44892,3.13073 0,1.31819 -0.82387,2.6364 -2.14206,3.13072 -3.95461,1.64776 -7.74444,2.63641 -11.20471,3.29551 -4.11938,1.15342 -8.56832,1.48298 -13.51157,1.48298 z m -2.30685,-81.398903 c -8.23874,0 -14.82975,2.6364 -19.773,8.073983 -4.94325,5.2728 -7.74443,13.18201 -8.73309,23.23328 h 52.72803 c 0,-9.72172 -2.14207,-17.63093 -6.42622,-23.06851 -4.28416,-5.437573 -10.21607,-8.238753 -17.79572,-8.238753 z m 119.29717,79.915923 c -2.14208,0 -3.78983,-1.64775 -3.78983,-3.78983 v -51.5746 c 0,-8.56831 -1.81253,-14.82976 -5.2728,-18.619593 -3.78983,-3.78982 -9.22741,-5.9319 -16.80706,-5.9319 -10.21606,0 -17.63093,2.47163 -22.24464,7.744433 -4.6137,5.10803 -7.2501,13.51156 -7.2501,24.88104 v 43.17107 c 0,2.14207 -1.64775,3.78983 -3.78983,3.78983 -2.14208,0 -3.78982,-1.64776 -3.78982,-3.78983 V 91.523327 c 0,-1.97731 1.48297,-3.46028 3.46027,-3.46028 1.81254,0 3.13073,1.3182 3.46028,2.96595 l 0.98866,8.5683 h 0.49432 c 5.60235,-8.89785 15.32408,-13.34678 29.49474,-13.34678 19.27868,0 29.00037,10.38083 29.00037,31.142493 v 51.73938 c -0.1647,2.30684 -1.9773,4.11938 -3.95456,4.11938 z M 326.32709,49.999997 c -7.74444,0 -14.00589,5.93191 -14.00589,13.34679 v 1.3182 c 0,7.2501 6.42622,13.34678 14.00589,13.34678 7.57965,0 14.00588,-6.09668 14.00588,-13.34678 v -1.15343 c 0,-7.57965 -6.42623,-13.51156 -14.00588,-13.51156 z m -165.26942,2.96596 c -1.15342,-1.15343 -2.47162,-1.64776 -3.9546,-1.64776 H 55.60162 c -1.64775,0 -2.80118,0.49433 -3.9546,1.64776 -1.15343,1.15342 -1.64776,2.6364 -1.64776,3.9546 v 67.557783 c 0,4.94326 0.98866,10.05129 2.96596,14.99454 1.9773,4.94325 4.28415,9.39217 7.2501,13.182 2.80118,3.78983 6.42623,7.74443 10.38083,11.2047 3.9546,3.62507 7.74443,6.75578 11.20471,9.06264 3.2955,2.30685 7.08532,4.61371 10.71038,6.75577 3.62505,2.14207 6.26145,3.62505 7.74443,4.28417 1.48297,0.82386 2.80117,1.31819 3.62505,1.81251 0.6591,0.32955 1.48297,0.49433 2.30685,0.49433 0.82387,0 1.64775,-0.16478 2.30685,-0.49433 0.98865,-0.32955 2.14207,-0.98865 3.78983,-1.81251 1.48297,-0.8239 4.11937,-2.1421 7.74443,-4.28417 3.62504,-2.14206 7.25009,-4.44892 10.71037,-6.75577 3.29551,-2.30686 7.25011,-5.43757 11.20471,-9.06264 3.95461,-3.62504 7.41489,-7.25011 10.38083,-11.2047 2.80118,-3.78983 5.2728,-8.23875 7.25009,-13.182 1.97732,-4.94325 2.96596,-10.05128 2.96596,-14.99454 V 56.920557 c 0.16478,-1.3182 -0.32955,-2.80118 -1.48297,-3.9546 z m -13.01722,72.171493 c 0,24.55148 -41.68811,45.64268 -41.68811,45.64268 V 65.818407 h 41.68811 c 0,0 0,34.932323 0,59.319043 z"
     id="path2"
     style="fill:#ffffff;stroke:none;stroke-width:1.64774" />
  <metadata
     id="metadata291">
    <rdf:RDF>
      <cc:Work
         rdf:about="">
        <dc:title>Bitwarden</dc:title>
        <dc:subject>
          <rdf:Bag>
            <rdf:li>Bitwarden</rdf:li>
            <rdf:li>Logo</rdf:li>
            <rdf:li>SVG</rdf:li>
            <rdf:li>Vector</rdf:li>
            <rdf:li>Password manager</rdf:li>
            <rdf:li>Gestor de contraseñas</rdf:li>
            <rdf:li>Open Source</rdf:li>
            <rdf:li>Código abierto</rdf:li>
            <rdf:li>Software</rdf:li>
            <rdf:li>Application</rdf:li>
            <rdf:li>Aplicación</rdf:li>
          </rdf:Bag>
        </dc:subject>
      </cc:Work>
    </rdf:RDF>
  </metadata>
</svg>
