<?xml version="1.0" standalone="no"?>
<!DOCTYPE svg PUBLIC "-//W3C//DTD SVG 20010904//EN"
 "http://www.w3.org/TR/2001/REC-SVG-20010904/DTD/svg10.dtd">
<svg version="1.0" xmlns="http://www.w3.org/2000/svg"
 width="600.000000pt" height="400.000000pt" viewBox="0 0 600.000000 400.000000"
 preserveAspectRatio="xMidYMid meet">

<g transform="translate(0.000000,400.000000) scale(0.100000,-0.100000)"
fill="#000000" stroke="none">
<path d="M1803 2445 c-37 -16 -53 -42 -53 -85 0 -40 47 -90 85 -90 37 0 82 26
91 52 27 87 -43 157 -123 123z"/>
<path d="M15 2434 c-14 -15 -16 -47 -13 -278 l3 -262 33 -66 c22 -45 53 -85
97 -127 72 -67 207 -151 242 -151 26 0 131 61 209 121 58 44 101 95 135 159
23 44 24 52 27 320 3 252 2 275 -14 287 -14 10 -98 13 -360 13 -303 0 -344 -2
-359 -16z m640 -304 c0 -203 -2 -217 -22 -255 -39 -69 -108 -135 -210 -199
l-43 -26 0 350 0 351 138 -3 137 -3 0 -215z"/>
<path d="M1102 2438 c-17 -17 -18 -778 0 -796 7 -7 34 -12 60 -12 45 0 49 2
65 34 l16 35 37 -30 c78 -63 195 -60 269 7 63 56 85 119 85 249 1 106 0 113
-32 178 -23 47 -45 75 -71 92 -73 49 -180 42 -246 -16 l-34 -31 -3 149 -3 148
-65 3 c-42 2 -70 -2 -78 -10z m316 -354 c37 -26 54 -72 55 -148 0 -86 -16
-139 -50 -166 -49 -39 -129 -17 -154 42 -19 45 -19 194 1 233 26 52 101 72
148 39z"/>
<path d="M4732 2438 c-8 -8 -12 -59 -12 -165 l0 -154 -35 35 c-72 72 -212 76
-303 9 -42 -32 -68 -84 -83 -168 -28 -160 23 -301 127 -350 83 -39 222 -14
272 50 26 33 32 32 32 -9 0 -37 26 -69 35 -45 10 27 0 802 -10 806 -6 2 -16
-2 -23 -9z m-100 -294 c64 -33 94 -124 86 -264 -9 -148 -62 -209 -181 -210
-88 0 -154 48 -177 128 -13 49 -13 172 1 227 15 58 69 120 116 133 44 12 117
6 155 -14z"/>
<path d="M2141 2280 c-19 -52 -29 -66 -67 -88 -37 -23 -44 -32 -44 -59 0 -30
3 -32 38 -35 l37 -3 5 -185 c3 -113 10 -193 17 -205 35 -61 111 -91 202 -80
95 12 101 16 101 80 l0 56 -58 -7 c-49 -5 -61 -3 -82 14 -25 20 -25 22 -25
174 l0 153 83 3 83 3 -3 57 -3 57 -83 3 -83 3 2 57 3 57 -51 3 -50 3 -22 -61z"/>
<path d="M1767 2214 c-4 -4 -7 -135 -7 -290 l0 -284 23 -5 c13 -4 48 -5 78 -3
l54 3 0 290 0 290 -70 3 c-39 1 -74 0 -78 -4z"/>
<path d="M3456 2195 c-58 -16 -79 -34 -66 -55 8 -12 16 -12 61 4 67 24 148 26
182 3 42 -27 58 -60 60 -123 l2 -59 -110 -6 c-80 -4 -122 -11 -155 -26 -194
-87 -112 -337 101 -308 50 7 135 54 145 80 11 26 24 16 24 -18 0 -40 17 -62
37 -46 10 9 13 56 13 203 -1 247 -10 285 -82 339 -34 25 -144 32 -212 12z
m234 -329 c0 -68 -12 -102 -52 -142 -58 -61 -185 -72 -237 -20 -21 21 -26 36
-26 76 0 76 39 108 160 134 11 2 50 4 88 5 l67 1 0 -54z"/>
<path d="M4058 2190 c-21 -11 -49 -37 -62 -57 l-25 -36 -3 49 c-3 41 -6 49
-23 49 -20 0 -20 -7 -20 -275 0 -261 1 -275 19 -278 10 -2 22 2 27 10 5 7 9
94 9 193 0 205 10 241 75 291 31 23 47 28 98 28 55 1 62 3 62 21 0 18 -7 20
-60 22 -44 2 -70 -3 -97 -17z"/>
<path d="M5075 2192 c-22 -10 -55 -35 -73 -56 -55 -63 -66 -99 -66 -221 0 -95
3 -116 23 -158 26 -52 65 -89 120 -114 64 -28 226 -19 280 16 12 8 12 12 2 24
-10 13 -19 13 -69 0 -80 -21 -171 -13 -221 20 -44 29 -78 91 -87 160 l-7 47
208 0 208 0 -5 69 c-6 85 -38 153 -91 195 -34 27 -48 31 -110 34 -54 2 -82 -2
-112 -16z m144 -32 c65 -18 99 -66 116 -162 l6 -38 -176 0 -175 0 0 28 c1 64
62 148 125 170 39 14 63 14 104 2z"/>
<path d="M5690 2195 c-19 -9 -47 -28 -62 -42 l-28 -27 0 25 c0 33 -15 53 -34
46 -14 -6 -16 -38 -16 -281 0 -223 3 -275 14 -279 31 -12 36 16 36 192 0 198
8 241 54 287 69 69 215 66 263 -5 22 -33 23 -42 23 -246 0 -179 2 -215 15
-225 32 -27 36 3 33 238 -3 253 -4 256 -72 306 -37 28 -174 34 -226 11z"/>
<path d="M2525 2190 c-7 -11 142 -529 157 -547 31 -38 50 -3 127 232 39 118
71 221 71 230 0 41 18 5 44 -88 47 -171 120 -370 138 -381 13 -8 21 -7 32 4
18 18 160 536 151 550 -12 19 -35 10 -46 -17 -5 -14 -36 -127 -67 -251 l-58
-224 -13 44 c-7 23 -41 134 -77 246 -65 204 -80 230 -110 200 -12 -12 -130
-347 -160 -458 l-10 -35 -13 55 c-13 54 -78 296 -107 398 -11 39 -19 52 -34
52 -10 0 -21 -4 -25 -10z"/>
</g>
</svg>
